<svg version="1.0" xmlns="http://www.w3.org/2000/svg"
 viewBox="0 0 400.000000 400.000000"
 preserveAspectRatio="xMidYMid meet"><g transform="translate(0.000000,400.000000) scale(0.100000,-0.100000)"
fill="#fff"><path d="M215 3356 c-40 -17 -84 -63 -101 -103 -22 -52 -20 -2448 1 -2500 20
-48 41 -71 87 -94 37 -19 85 -19 1831 -17 l1794 3 36 28 c84 64 78 -52 75
1340 l-3 1233 -27 41 c-16 24 -44 49 -70 62 l-44 21 -1775 0 c-1448 -1 -1780
-3 -1804 -14z m3345 -1351 l0 -985 -1540 0 -1540 0 0 985 0 985 1540 0 1540 0
0 -985z M914 2661 c-17 -10 -42 -34 -55 -53 l-24 -33 -3 -369 c-3 -427 1 -475
58 -595 212 -443 853 -444 1068 -1 59 120 63 165 60 596 l-3 371 -28 36 c-74
97 -215 91 -284 -12 -23 -34 -23 -36 -23 -396 0 -281 -3 -372 -14 -408 -54
-180 -285 -238 -418 -105 -73 74 -72 69 -78 500 -6 432 -2 413 -80 466 -43 29
-131 31 -176 3z M2392 2664 c-18 -9 -43 -31 -55 -48 l-22 -31 -3 -593 c-3
-662 -5 -639 67 -688 51 -35 141 -34 194 1 66 45 72 67 75 278 l4 187 106 0
c527 1 702 651 235 873 l-68 32 -250 3 c-216 2 -254 0 -283 -14z m467 -339
c129 -66 57 -208 -110 -213 l-99 -4 0 116 0 116 90 0 c60 0 101 -5 119 -15z"/></g></svg>