<svg version="1.0" xmlns="http://www.w3.org/2000/svg"
 viewBox="0 0 300.000000 300.000000"
 preserveAspectRatio="xMidYMid meet"><g transform="translate(0.000000,300.000000) scale(0.100000,-0.100000)"
fill="#fff"><path d="M2140 2881 c-225 -33 -264 -105 -268 -503 -3 -309 -1 -325 37 -258
23 41 97 100 126 100 9 0 31 6 48 14 40 17 177 46 220 46 33 0 168 34 199 51
10 5 26 9 35 9 10 0 27 7 37 15 11 8 26 15 34 15 107 0 174 246 103 380 -62
118 -293 171 -571 131z M895 2056 c-127 -33 -255 -86 -255 -107 0 -6 -4 -8
-10 -4 -12 7 -78 -63 -86 -92 -3 -13 -10 -23 -14 -23 -8 0 -23 -38 -21 -52 1
-5 -4 -8 -11 -8 -6 0 -8 -3 -5 -7 4 -3 3 -11 -2 -17 -81 -98 4 -201 167 -204
94 -1 172 -1 173 0 0 2 3 23 5 47 5 44 35 114 58 136 25 24 67 45 89 45 12 0
28 5 35 12 17 17 222 25 222 8 0 -8 10 -11 30 -8 17 3 30 1 30 -4 0 -4 8 -8
18 -8 9 0 29 -6 44 -14 15 -8 39 -17 55 -21 109 -26 113 -316 4 -391 -34 -24
-165 -58 -286 -73 -44 -6 -98 -13 -120 -16 -22 -4 -53 -7 -70 -9 -111 -12
-221 -38 -235 -55 -3 -3 -22 -15 -43 -25 -173 -88 -261 -452 -169 -696 3 -8 6
-18 6 -22 5 -38 195 -204 196 -170 0 4 4 2 8 -5 49 -77 669 -128 749 -61 7 6
13 8 13 5 0 -3 21 1 48 9 26 8 55 17 64 19 9 2 27 9 40 16 13 8 26 13 30 14 4
0 13 6 19 13 7 6 18 12 24 12 9 0 83 69 131 123 48 54 53 125 53 712 1 593 -3
644 -51 702 -53 63 -111 123 -120 123 -6 0 -30 14 -55 30 -24 17 -48 30 -54
30 -5 0 -28 9 -51 20 -22 11 -44 17 -49 15 -4 -3 -36 2 -71 10 -137 33 -385
29 -533 -9z m614 -1164 c5 -353 -50 -418 -354 -423 -83 -1 -183 10 -207 23
-10 5 -18 6 -18 3 0 -3 -6 -1 -12 5 -7 5 -26 20 -42 32 -105 79 -98 301 13
385 56 43 80 49 321 73 241 25 242 25 271 56 12 13 23 24 24 24 1 0 2 -80 4
-178z"/></g></svg>