<svg id="svg" version="1.1" xmlns="http://www.w3.org/2000/svg" xmlns:xlink="http://www.w3.org/1999/xlink" width="400" height="400" viewBox="0, 0, 400,400"><g id="svgg"><path id="path0" d="M0.000 4.549 L 0.000 9.098 5.074 6.265 C 9.967 3.533,10.943 3.428,32.422 3.322 C 50.428 3.234,54.813 2.905,55.312 1.606 C 55.831 0.253,51.517 -0.000,27.964 -0.000 L 0.000 0.000 0.000 4.549 M81.204 1.641 C 80.455 2.543,78.298 3.621,76.411 4.035 C 71.772 5.054,72.367 5.332,82.064 6.675 C 88.727 7.597,91.200 7.501,94.313 6.201 C 99.738 3.934,108.751 4.164,125.585 7.000 C 138.694 9.208,142.536 9.357,168.000 8.650 C 200.817 7.738,198.906 7.861,198.199 6.717 C 197.304 5.269,203.227 1.964,205.296 2.758 C 206.872 3.363,206.944 3.197,205.736 1.740 C 203.622 -0.807,83.315 -0.903,81.204 1.641 M315.109 2.331 C 315.445 3.613,315.949 4.432,316.231 4.150 C 316.513 3.868,318.276 4.077,320.148 4.614 C 322.857 5.391,324.007 5.136,325.776 3.367 C 329.413 -0.270,338.383 1.763,339.909 6.570 C 340.595 8.733,355.800 12.735,373.714 15.468 C 375.914 15.804,379.129 16.359,380.857 16.701 L 384.000 17.324 384.000 8.662 L 384.000 0.000 349.250 -0.000 C 314.837 -0.000,314.506 0.023,315.109 2.331 M303.274 5.132 C 302.283 7.716,294.605 9.700,291.672 8.130 C 290.364 7.430,284.629 6.857,278.928 6.857 C 273.227 6.857,259.638 6.290,248.731 5.596 L 228.899 4.336 224.806 7.019 L 220.713 9.702 226.642 11.309 C 229.903 12.192,235.400 12.802,238.857 12.663 C 255.285 12.002,263.019 12.297,271.685 13.917 C 280.763 15.614,281.153 15.597,283.113 13.423 C 284.913 11.427,286.081 11.257,293.429 11.920 C 301.162 12.617,301.714 12.517,301.714 10.416 C 301.714 9.179,303.069 7.100,304.726 5.797 C 306.973 4.030,307.254 3.429,305.833 3.429 C 304.785 3.429,303.634 4.195,303.274 5.132 M66.571 13.529 C 62.014 14.508,58.286 15.889,58.286 16.598 C 58.286 18.556,53.504 22.488,50.286 23.178 C 37.367 25.947,17.389 36.219,9.283 44.260 L 0.956 52.520 3.842 55.117 C 6.262 57.295,6.784 58.901,7.078 65.069 L 7.429 72.424 3.608 73.415 C -0.668 74.524,-1.051 79.770,2.439 89.429 C 4.577 95.346,5.143 94.820,5.143 86.914 C 5.143 82.564,5.718 79.579,6.739 78.629 C 8.058 77.401,8.176 77.422,7.420 78.748 C 6.801 79.832,6.938 80.085,7.842 79.526 C 8.578 79.071,8.870 78.198,8.492 77.585 C 7.281 75.627,11.364 70.870,17.776 66.769 C 23.729 62.960,24.000 62.573,24.000 57.878 C 24.000 49.636,28.503 46.806,37.714 49.258 C 38.749 49.533,39.434 48.933,39.441 47.742 C 39.465 44.075,42.889 42.117,50.421 41.464 C 54.432 41.117,59.050 40.158,60.683 39.334 C 64.141 37.589,72.912 37.480,83.429 39.052 C 94.433 40.697,116.012 39.177,116.313 36.735 C 116.440 35.702,116.678 33.314,116.843 31.429 L 117.143 28.000 101.143 27.402 C 92.343 27.073,84.229 26.369,83.111 25.839 C 78.826 23.804,77.399 16.479,80.653 13.224 C 83.001 10.876,78.455 10.974,66.571 13.529 M152.000 14.915 C 149.171 15.419,143.244 15.869,138.827 15.915 L 130.797 16.000 131.235 20.593 C 131.482 23.189,131.062 25.922,130.268 26.879 C 129.134 28.244,129.190 28.571,130.558 28.571 C 131.490 28.571,134.638 28.898,137.555 29.298 C 141.776 29.877,142.857 29.684,142.857 28.355 C 142.857 22.133,146.761 21.292,175.440 21.339 C 201.468 21.381,208.382 20.375,200.106 17.748 C 198.907 17.367,197.637 16.304,197.284 15.385 C 196.564 13.509,161.922 13.150,152.000 14.915 M345.318 18.457 C 346.873 23.109,348.571 25.228,348.571 22.514 C 348.571 21.446,349.600 19.543,350.857 18.286 L 353.143 16.000 350.379 16.000 C 348.859 16.000,346.811 15.691,345.827 15.314 C 344.276 14.719,344.209 15.136,345.318 18.457 M233.780 19.098 C 233.430 20.011,233.143 20.973,233.143 21.236 C 233.143 21.499,236.807 21.714,241.286 21.714 C 247.330 21.714,251.085 22.421,255.857 24.455 C 259.393 25.962,263.905 27.803,265.885 28.546 C 269.408 29.868,275.429 40.159,275.429 44.860 C 275.429 46.733,289.582 48.306,303.814 48.016 C 309.102 47.908,311.878 48.426,314.100 49.934 C 315.773 51.070,322.029 53.698,328.000 55.773 C 343.771 61.254,343.231 61.121,342.652 59.386 C 341.650 56.379,336.330 53.587,325.277 50.269 C 313.981 46.877,307.868 42.656,304.126 35.663 C 303.427 34.357,300.722 32.876,297.598 32.090 C 289.951 30.164,283.983 26.846,281.240 22.993 C 278.937 19.759,278.471 19.627,267.143 18.996 C 237.655 17.354,234.446 17.364,233.780 19.098 M320.000 22.857 C 319.057 23.466,316.610 23.973,314.562 23.982 C 311.037 23.999,310.915 24.138,312.276 26.571 C 313.067 27.986,313.768 29.283,313.834 29.453 C 313.900 29.624,320.008 30.993,327.408 32.496 C 342.324 35.525,344.509 36.875,344.337 42.952 C 344.229 46.766,344.601 47.251,349.183 49.278 C 351.913 50.486,355.946 53.577,358.147 56.147 C 360.962 59.437,364.742 61.949,370.911 64.631 C 375.731 66.726,380.648 69.321,381.838 70.397 C 383.951 72.310,384.000 71.909,384.000 52.749 C 384.000 41.965,383.614 33.104,383.143 33.055 C 382.671 33.007,381.514 32.820,380.571 32.639 C 379.629 32.458,375.771 31.947,372.000 31.503 C 368.229 31.058,362.057 29.904,358.286 28.937 C 354.514 27.970,350.657 27.018,349.714 26.820 C 348.771 26.622,348.000 26.378,348.000 26.278 C 348.000 26.177,346.971 25.949,345.714 25.770 C 344.457 25.591,338.800 24.607,333.143 23.583 C 321.096 21.403,322.160 21.462,320.000 22.857 M375.539 27.250 C 375.143 27.890,375.377 28.758,376.057 29.178 C 377.815 30.264,378.948 28.777,377.481 27.310 C 376.661 26.489,376.021 26.469,375.539 27.250 M196.286 28.334 C 188.461 28.629,187.429 28.921,187.429 30.840 C 187.429 32.035,186.392 33.739,185.125 34.627 C 183.022 36.100,183.528 36.306,190.948 36.995 C 195.418 37.411,200.021 38.257,201.177 38.875 C 202.333 39.494,211.155 39.966,220.782 39.925 L 238.286 39.851 225.384 37.171 C 212.186 34.430,208.845 32.963,209.849 30.348 C 210.593 28.407,207.303 27.919,196.286 28.334 M151.535 39.295 C 152.125 40.832,154.098 41.123,163.265 41.026 C 175.383 40.897,173.312 39.657,158.556 38.206 C 151.723 37.535,150.908 37.661,151.535 39.295 M273.143 56.977 C 272.200 57.536,269.371 58.374,266.857 58.840 C 258.572 60.374,265.867 61.285,282.571 60.802 C 304.015 60.181,303.538 58.771,281.143 56.578 C 277.686 56.239,274.086 56.419,273.143 56.977 M81.050 58.000 C 80.341 64.545,80.352 64.563,85.287 64.796 C 89.483 64.993,89.971 64.759,89.458 62.796 C 88.968 60.922,89.482 60.566,92.724 60.535 C 96.355 60.501,96.446 60.404,94.353 58.821 C 92.087 57.107,81.219 56.436,81.050 58.000 M247.587 58.857 C 247.186 59.901,247.585 60.571,248.607 60.571 C 249.530 60.571,250.286 59.800,250.286 58.857 C 250.286 57.914,249.826 57.143,249.265 57.143 C 248.704 57.143,247.949 57.914,247.587 58.857 M96.000 63.464 C 96.000 65.313,97.786 65.733,98.783 64.120 C 99.131 63.557,98.647 62.802,97.708 62.441 C 96.670 62.043,96.000 62.445,96.000 63.464 M47.744 64.838 C 50.433 65.080,54.547 65.076,56.887 64.831 C 59.228 64.585,57.029 64.388,52.000 64.392 C 46.971 64.396,45.056 64.597,47.744 64.838 M122.571 64.819 C 124.300 65.080,127.129 65.080,128.857 64.819 C 130.586 64.557,129.171 64.342,125.714 64.342 C 122.257 64.342,120.843 64.557,122.571 64.819 M136.870 64.808 C 138.292 65.082,140.349 65.071,141.442 64.785 C 142.535 64.499,141.371 64.276,138.857 64.288 C 136.343 64.301,135.449 64.535,136.870 64.808 M178.571 64.788 C 179.671 65.075,181.471 65.075,182.571 64.788 C 183.671 64.500,182.771 64.265,180.571 64.265 C 178.371 64.265,177.471 64.500,178.571 64.788 M266.571 64.788 C 267.671 65.075,269.471 65.075,270.571 64.788 C 271.671 64.500,270.771 64.265,268.571 64.265 C 266.371 64.265,265.471 64.500,266.571 64.788 M324.000 68.198 C 325.886 69.215,328.655 71.001,330.154 72.167 C 333.693 74.918,334.790 74.846,334.022 71.912 C 333.364 69.394,331.059 68.210,324.571 67.058 L 320.571 66.348 324.000 68.198 M359.871 80.416 C 361.826 82.772,365.465 94.632,366.394 101.677 C 366.955 105.937,367.979 108.544,369.609 109.870 C 371.693 111.565,371.974 112.929,371.798 120.479 C 371.621 128.027,371.851 129.143,373.584 129.143 C 375.633 129.143,380.445 133.682,382.669 137.714 C 383.664 139.518,383.938 137.769,383.965 129.429 C 383.999 119.180,383.921 118.857,381.397 118.857 C 377.128 118.857,373.534 115.639,373.935 112.175 C 374.370 108.416,378.885 108.394,382.000 112.136 C 383.931 114.456,384.000 114.142,384.000 102.984 L 384.000 91.429 381.106 91.429 C 376.277 91.429,370.347 88.294,368.260 84.636 C 367.174 82.734,364.795 80.656,362.972 80.017 C 358.659 78.507,358.322 78.550,359.871 80.416 M8.982 86.449 C 8.549 104.507,8.769 106.875,11.404 112.541 C 13.734 117.552,14.153 117.938,14.941 115.806 C 15.433 114.476,16.868 112.664,18.130 111.780 C 23.856 107.770,25.759 78.846,20.170 80.761 C 17.081 81.819,13.724 81.773,11.143 80.636 C 9.374 79.857,9.124 80.530,8.982 86.449 M0.000 110.282 C 0.000 112.421,0.931 113.526,3.714 114.691 C 8.422 116.662,9.046 116.118,5.909 112.779 C 4.545 111.327,3.429 109.529,3.429 108.783 C 3.429 108.038,2.657 107.429,1.714 107.429 C 0.648 107.429,0.000 108.508,0.000 110.282 M86.421 110.345 C 86.031 111.362,86.222 111.821,86.870 111.420 C 87.492 111.036,88.000 111.237,88.000 111.865 C 88.000 112.494,87.486 113.326,86.857 113.714 C 86.229 114.103,85.722 115.033,85.732 115.782 C 85.742 116.600,86.191 116.459,86.857 115.429 C 87.466 114.486,87.973 114.297,87.982 115.010 C 88.017 117.589,92.186 117.399,94.784 114.700 C 97.049 112.347,98.452 112.000,105.712 112.000 C 111.361 112.000,114.219 111.536,114.594 110.559 C 115.299 108.722,99.237 107.982,96.022 109.702 C 94.575 110.477,93.617 110.482,93.145 109.717 C 92.035 107.922,87.177 108.376,86.421 110.345 M124.389 109.463 C 125.118 109.706,125.714 110.633,125.714 111.524 C 125.714 112.414,126.357 113.204,127.143 113.278 C 133.186 113.850,119.673 115.013,112.355 114.551 C 101.137 113.842,93.961 116.190,95.956 119.918 C 97.224 122.287,102.874 123.792,104.514 122.198 C 105.111 121.618,106.727 121.143,108.104 121.143 C 109.481 121.143,112.849 120.126,115.589 118.882 C 118.330 117.639,122.180 116.610,124.146 116.597 C 126.112 116.583,128.348 115.814,129.116 114.889 C 130.345 113.408,130.994 113.408,134.539 114.889 C 138.654 116.609,148.711 117.194,150.110 115.795 C 151.601 114.304,187.385 115.517,191.229 117.189 C 193.224 118.057,194.086 118.788,193.143 118.812 C 192.026 118.842,191.429 120.004,191.429 122.147 C 191.429 125.360,191.601 125.453,198.785 126.124 C 207.267 126.916,207.051 127.019,207.334 122.060 C 207.548 118.317,207.595 118.288,212.877 118.559 C 217.204 118.781,218.081 118.511,217.548 117.121 C 217.187 116.181,217.737 114.120,218.771 112.542 C 220.231 110.315,220.323 109.553,219.183 109.138 C 216.831 108.280,191.399 109.096,191.714 110.020 C 191.871 110.480,192.000 111.352,192.000 111.957 C 192.000 112.562,196.757 113.227,202.571 113.434 L 213.143 113.811 200.857 114.049 C 188.531 114.286,187.992 114.119,188.443 110.189 C 188.542 109.322,178.719 108.960,155.825 108.985 C 137.806 109.005,123.660 109.220,124.389 109.463 M221.328 111.069 C 220.635 113.718,222.472 114.130,237.143 114.616 C 247.561 114.961,248.571 115.190,248.571 117.212 C 248.571 119.653,237.834 120.328,230.073 118.374 C 226.752 117.538,226.487 117.668,227.057 119.845 C 227.574 121.823,228.066 122.025,229.936 121.024 C 231.678 120.092,232.682 120.263,234.353 121.775 C 236.104 123.359,237.554 123.561,241.972 122.833 C 255.655 120.579,261.714 121.766,270.104 128.343 C 273.727 131.184,274.410 132.352,274.016 135.035 C 273.494 138.590,274.722 139.345,276.335 136.462 C 277.519 134.347,276.780 129.143,275.295 129.143 C 274.740 129.143,274.286 128.051,274.286 126.717 C 274.286 124.691,274.568 124.526,276.000 125.714 C 277.406 126.881,277.714 126.797,277.714 125.247 C 277.714 117.736,289.127 125.617,297.008 138.571 C 300.179 143.784,301.714 144.027,301.714 139.316 C 301.714 132.811,292.257 118.891,287.804 118.840 C 284.427 118.801,283.122 116.995,284.546 114.333 C 286.083 111.461,286.065 111.424,282.579 110.353 C 280.538 109.726,280.156 109.935,280.710 111.378 C 281.136 112.489,280.248 114.350,278.417 116.180 C 276.773 117.824,275.429 119.870,275.429 120.727 C 275.429 121.584,274.854 122.286,274.152 122.286 C 273.359 122.286,273.172 121.313,273.658 119.714 C 276.591 110.068,276.580 109.970,272.387 109.184 C 262.706 107.367,221.902 108.874,221.328 111.069 M146.000 113.961 C 144.271 114.223,141.443 114.223,139.714 113.961 C 137.986 113.700,139.400 113.485,142.857 113.485 C 146.314 113.485,147.729 113.700,146.000 113.961 M175.143 113.970 C 173.100 114.223,169.757 114.223,167.714 113.970 C 165.671 113.716,167.343 113.509,171.429 113.509 C 175.514 113.509,177.186 113.716,175.143 113.970 M355.906 130.716 C 355.828 139.301,356.033 140.606,357.064 138.104 C 357.752 136.432,359.306 133.970,360.516 132.633 C 361.726 131.296,362.810 129.321,362.925 128.244 C 363.040 127.167,363.488 125.449,363.921 124.427 C 364.660 122.679,363.237 121.862,357.143 120.537 C 356.452 120.386,355.963 124.408,355.906 130.716 M20.731 124.236 L 18.033 126.757 20.731 132.236 L 23.429 137.714 23.783 133.429 C 23.978 131.071,23.978 127.471,23.783 125.429 L 23.429 121.714 20.731 124.236 M91.921 126.307 C 90.908 131.706,91.733 132.320,93.295 127.329 C 93.978 125.149,94.120 123.108,93.611 122.794 C 93.103 122.479,92.342 124.060,91.921 126.307 M96.000 125.923 C 96.000 127.380,95.238 132.172,94.306 136.572 C 93.374 140.972,92.602 148.649,92.591 153.633 C 92.572 162.352,90.820 170.286,88.913 170.286 C 88.411 170.286,88.061 169.900,88.135 169.429 C 88.479 167.251,87.917 165.416,87.143 166.190 C 85.514 167.818,85.880 193.008,87.523 192.377 C 88.387 192.045,88.972 190.004,88.937 187.441 C 88.903 185.037,89.224 182.508,89.648 181.821 C 90.073 181.134,89.846 180.571,89.143 180.571 C 88.440 180.571,88.188 180.049,88.583 179.410 C 88.978 178.771,89.780 178.544,90.365 178.906 C 90.950 179.268,91.429 178.762,91.429 177.782 C 91.429 176.802,91.038 176.000,90.561 176.000 C 90.083 176.000,89.017 174.918,88.191 173.595 C 87.364 172.272,87.166 171.484,87.750 171.845 C 91.866 174.389,95.639 163.555,97.048 145.143 C 97.904 133.957,99.848 126.857,102.055 126.857 C 103.941 126.857,101.590 124.963,98.571 124.051 C 96.421 123.402,96.000 123.708,96.000 125.923 M86.132 136.571 C 86.135 142.857,86.327 145.283,86.558 141.962 C 86.790 138.641,86.787 133.498,86.553 130.533 C 86.318 127.568,86.129 130.286,86.132 136.571 M105.143 126.110 C 105.143 126.328,105.888 128.000,106.799 129.827 C 108.056 132.346,108.196 134.305,107.377 137.949 C 106.783 140.591,106.424 148.902,106.578 156.418 C 106.868 170.626,107.650 172.037,111.170 164.711 C 111.962 163.063,113.397 161.705,114.361 161.694 C 115.324 161.683,118.846 158.598,122.188 154.837 C 137.321 137.807,137.366 137.767,138.913 139.883 C 140.206 141.651,140.560 141.512,142.817 138.342 L 145.299 134.857 138.649 134.884 C 134.992 134.899,129.943 135.398,127.429 135.992 C 123.731 136.866,122.600 136.731,121.509 135.285 C 120.545 134.007,119.179 133.713,116.719 134.253 C 111.844 135.324,108.571 133.255,108.571 129.103 C 108.571 126.853,107.995 125.714,106.857 125.714 C 105.914 125.714,105.143 125.892,105.143 126.110 M133.143 126.529 C 131.886 126.832,130.343 127.580,129.714 128.192 C 128.525 129.350,133.316 128.492,137.714 126.760 L 140.000 125.859 137.714 125.919 C 136.457 125.952,134.400 126.227,133.143 126.529 M243.714 126.568 C 235.386 126.764,228.571 127.386,228.571 127.952 C 228.571 128.517,227.763 129.788,226.776 130.776 C 225.788 131.763,225.514 132.571,226.168 132.571 C 226.822 132.571,227.076 133.303,226.733 134.198 C 226.372 135.139,227.146 136.380,228.569 137.142 C 230.808 138.340,230.922 138.257,229.833 136.222 C 228.701 134.106,229.050 133.984,236.318 133.958 C 247.635 133.918,247.683 133.908,248.331 131.429 C 249.083 128.554,251.462 128.453,252.197 131.265 C 253.217 135.165,260.282 136.326,261.990 132.874 C 264.265 128.279,265.668 129.226,266.286 135.773 C 266.825 141.494,266.979 141.743,269.034 140.231 C 271.534 138.391,269.483 127.722,266.826 128.742 C 266.102 129.020,264.849 128.452,264.043 127.481 C 263.237 126.509,261.740 125.827,260.717 125.964 C 259.694 126.101,252.043 126.373,243.714 126.568 M279.287 128.529 C 278.955 129.394,279.531 131.395,280.568 132.977 C 284.631 139.179,279.211 146.276,273.825 141.806 C 272.723 140.892,272.036 141.298,271.061 143.438 C 269.726 146.368,270.301 146.801,275.241 146.576 C 276.081 146.538,277.288 148.000,277.924 149.825 C 278.560 151.650,279.613 153.143,280.263 153.143 C 282.650 153.143,286.303 158.560,285.850 161.429 C 285.623 162.866,287.770 162.383,288.389 160.857 C 288.840 159.745,289.209 159.772,290.053 160.975 C 290.898 162.180,291.675 162.234,293.569 161.221 C 295.771 160.042,296.011 160.220,296.114 163.103 L 296.228 166.286 297.143 163.429 L 298.058 160.571 298.172 163.647 C 298.464 171.526,300.571 167.436,300.571 158.990 C 300.571 149.458,299.889 147.507,292.832 136.875 C 289.430 131.748,280.227 126.078,279.287 128.529 M217.143 133.714 C 219.359 135.146,220.571 135.146,220.571 133.714 C 220.571 133.086,219.414 132.579,218.000 132.589 C 215.921 132.603,215.757 132.818,217.143 133.714 M185.842 134.651 C 185.523 135.166,186.991 135.559,189.103 135.523 C 191.215 135.487,192.700 135.065,192.404 134.586 C 191.683 133.419,186.572 133.470,185.842 134.651 M239.670 137.410 C 240.836 138.698,241.951 139.077,242.616 138.412 C 244.151 136.877,242.626 134.974,240.018 135.170 C 237.944 135.326,237.921 135.477,239.670 137.410 M4.130 143.429 C 4.664 150.627,5.079 151.728,8.267 154.412 C 14.729 159.853,11.927 169.143,3.823 169.143 L 0.000 169.143 0.000 222.898 L 0.000 276.653 5.305 278.926 C 11.750 281.689,11.065 282.652,11.646 270.007 C 12.075 260.681,11.897 259.368,10.124 258.806 C 5.103 257.212,4.797 212.824,9.777 208.341 C 12.494 205.894,12.571 205.370,12.571 189.452 C 12.571 172.436,14.501 164.462,17.375 169.599 C 17.953 170.632,18.861 171.208,19.392 170.880 C 20.646 170.105,19.537 165.471,17.744 164.000 C 15.623 162.260,12.863 156.409,12.211 152.273 C 11.559 148.133,12.115 147.808,15.630 150.269 C 17.800 151.790,18.130 151.769,18.780 150.075 C 19.591 147.962,17.738 146.372,14.286 146.220 C 10.226 146.040,5.181 142.259,4.339 138.765 C 3.897 136.930,3.803 139.029,4.130 143.429 M372.571 138.163 C 372.571 139.353,373.400 140.645,374.413 141.034 C 375.761 141.551,376.067 141.252,375.556 139.919 C 375.172 138.918,374.857 137.627,374.857 137.049 C 374.857 136.472,374.343 136.000,373.714 136.000 C 373.086 136.000,372.571 136.974,372.571 138.163 M305.173 145.635 C 304.559 147.250,303.546 148.571,302.921 148.571 C 302.297 148.571,302.082 149.343,302.444 150.286 C 302.806 151.229,304.349 152.000,305.872 152.000 C 308.849 152.000,310.721 154.879,308.918 156.682 C 307.793 157.807,309.566 171.694,311.017 173.124 C 311.419 173.520,311.677 170.780,311.589 167.036 C 311.501 163.292,311.043 160.465,310.571 160.753 C 310.100 161.042,309.714 160.733,309.714 160.067 C 309.714 159.402,310.154 158.857,310.691 158.857 C 313.279 158.857,311.490 143.437,308.859 143.064 C 306.973 142.796,305.992 143.480,305.173 145.635 M133.313 147.772 C 123.099 156.259,121.753 157.562,122.465 158.275 C 122.877 158.687,125.669 156.672,128.669 153.798 C 131.669 150.923,134.527 148.571,135.021 148.571 C 135.515 148.571,136.470 147.543,137.143 146.286 C 138.713 143.351,138.563 143.409,133.313 147.772 M254.109 150.857 C 254.780 153.371,255.948 155.429,256.704 155.429 C 257.636 155.429,257.367 153.956,255.870 150.857 C 254.655 148.343,253.487 146.286,253.275 146.286 C 253.063 146.286,253.438 148.343,254.109 150.857 M236.571 148.431 C 236.571 149.767,237.811 150.090,241.768 149.789 C 244.418 149.588,250.023 161.080,248.487 163.565 C 247.932 164.463,248.136 164.622,249.089 164.033 C 250.153 163.376,250.352 163.853,249.847 165.857 C 249.471 167.350,249.466 167.907,249.836 167.095 C 250.756 165.074,253.714 167.536,253.714 170.323 C 253.714 174.495,259.555 181.727,261.908 180.468 C 264.641 179.005,266.281 180.029,266.303 183.210 C 266.325 186.343,267.501 188.000,269.703 188.000 C 270.671 188.000,271.723 189.481,272.139 191.429 C 272.572 193.452,272.928 190.525,273.008 184.286 C 273.133 174.521,273.317 173.714,275.429 173.714 C 276.850 173.714,277.708 172.958,277.697 171.714 C 277.682 170.034,277.509 169.984,276.614 171.399 C 275.180 173.666,270.231 169.153,269.354 164.777 C 268.891 162.465,268.016 161.674,265.783 161.548 C 264.156 161.457,261.558 161.065,260.010 160.676 C 256.726 159.852,256.940 163.547,260.661 171.894 C 262.194 175.332,262.358 176.830,261.376 178.403 C 260.324 180.087,259.727 178.596,257.982 169.938 C 256.342 161.796,255.244 158.914,253.111 157.143 C 251.597 155.886,249.828 153.412,249.181 151.646 C 248.534 149.879,247.500 148.746,246.883 149.127 C 246.266 149.508,244.618 149.208,243.221 148.460 C 241.265 147.413,240.577 147.412,240.229 148.455 C 239.885 149.487,239.396 149.493,238.175 148.479 C 237.018 147.519,236.571 147.506,236.571 148.431 M355.717 156.000 C 355.729 158.514,355.964 159.408,356.237 157.987 C 356.510 156.565,356.500 154.508,356.214 153.415 C 355.928 152.323,355.704 153.486,355.717 156.000 M85.891 158.857 C 85.739 161.434,86.140 163.429,86.811 163.429 C 87.465 163.429,88.000 161.371,88.000 158.857 C 88.000 156.343,87.586 154.286,87.081 154.286 C 86.575 154.286,86.040 156.343,85.891 158.857 M34.574 159.429 C 34.587 161.943,34.821 162.837,35.094 161.415 C 35.367 159.994,35.357 157.936,35.071 156.844 C 34.785 155.751,34.561 156.914,34.574 159.429 M302.947 159.003 C 302.997 161.123,303.331 162.086,303.690 161.143 C 304.049 160.200,304.804 159.126,305.368 158.756 C 305.932 158.386,305.598 157.424,304.626 156.616 C 303.087 155.340,302.869 155.650,302.947 159.003 M381.565 159.782 C 380.133 161.266,379.958 162.377,380.811 164.571 C 381.422 166.143,382.329 169.743,382.827 172.571 C 383.615 177.055,383.748 176.433,383.866 167.714 C 383.940 162.214,383.871 157.745,383.714 157.782 C 383.557 157.820,382.590 158.720,381.565 159.782 M170.154 164.357 C 170.082 164.789,170.121 166.086,170.242 167.238 C 170.363 168.391,169.535 170.011,168.403 170.839 C 166.676 172.102,167.335 172.148,172.496 171.128 C 178.198 170.000,178.793 170.092,180.650 172.384 C 183.853 176.340,188.571 173.715,188.571 167.977 C 188.571 165.432,188.483 165.398,187.031 167.385 C 186.183 168.544,184.897 169.126,184.173 168.679 C 182.426 167.598,182.494 164.899,184.286 164.223 C 185.071 163.927,182.243 163.659,178.000 163.628 C 173.757 163.597,170.226 163.925,170.154 164.357 M114.284 171.434 C 112.196 177.759,113.353 178.199,115.604 171.937 C 116.609 169.143,117.063 166.857,116.613 166.857 C 116.163 166.857,115.115 168.917,114.284 171.434 M288.040 169.429 C 288.650 170.843,289.712 173.414,290.401 175.143 C 291.089 176.871,292.116 178.286,292.683 178.286 C 294.142 178.286,293.976 177.462,291.869 174.246 C 290.820 172.646,290.549 171.429,291.240 171.429 C 291.910 171.429,292.869 172.160,293.372 173.054 C 294.145 174.428,294.612 174.440,296.400 173.130 C 299.123 171.135,297.685 168.773,294.159 169.447 C 292.665 169.732,290.863 169.266,290.153 168.412 C 288.124 165.966,286.818 166.595,288.040 169.429 M158.533 173.015 C 152.425 176.771,148.571 180.631,148.571 182.996 C 148.571 185.476,143.305 195.588,141.400 196.766 C 140.326 197.430,140.334 197.934,141.438 199.038 C 142.219 199.819,142.862 202.026,142.868 203.943 C 142.879 207.418,142.888 207.412,145.926 202.286 C 147.602 199.457,149.526 196.760,150.201 196.292 C 151.764 195.209,155.666 199.800,154.668 201.548 C 154.256 202.268,154.340 202.476,154.854 202.010 C 155.369 201.544,156.480 201.735,157.323 202.436 C 158.523 203.431,158.857 203.188,158.857 201.319 C 158.857 199.664,158.330 199.131,157.143 199.587 C 154.990 200.413,154.835 197.344,156.941 195.596 C 158.046 194.679,158.817 194.703,159.799 195.684 C 160.538 196.424,161.143 196.597,161.143 196.069 C 161.143 195.541,160.363 194.538,159.411 193.840 C 157.900 192.734,158.107 191.747,161.024 186.127 C 163.502 181.353,164.035 179.350,163.083 178.397 C 162.130 177.444,162.130 176.227,163.085 173.698 C 164.624 169.622,164.165 169.553,158.533 173.015 M98.571 174.126 C 95.232 175.780,95.019 180.571,98.286 180.571 C 101.034 180.571,101.212 182.577,98.773 186.060 C 97.144 188.384,97.338 195.429,99.030 195.429 C 101.864 195.429,108.570 175.237,106.443 173.109 C 105.554 172.220,101.313 172.768,98.571 174.126 M373.217 182.566 C 373.488 188.069,374.011 196.324,374.379 200.910 C 374.836 206.603,374.615 209.772,373.681 210.898 C 372.832 211.921,372.596 214.059,373.060 216.530 C 373.471 218.721,373.219 224.931,372.501 230.330 C 371.133 240.612,371.638 243.747,373.763 238.159 C 374.909 235.144,375.121 235.041,376.203 236.974 C 378.017 240.217,376.875 254.848,374.713 256.058 C 371.414 257.904,371.769 284.298,375.099 284.775 C 380.014 285.479,380.589 291.089,376.154 295.052 L 372.357 298.445 372.750 312.691 L 373.143 326.937 376.568 327.826 C 380.952 328.964,384.314 334.332,381.714 336.044 C 380.016 337.162,378.438 337.028,374.571 335.436 C 372.968 334.776,372.571 335.203,372.571 337.592 C 372.571 344.246,364.158 347.454,358.828 342.832 C 357.014 341.259,355.792 340.894,354.996 341.689 C 354.354 342.332,350.547 342.857,346.535 342.857 L 339.242 342.857 341.630 346.721 C 345.068 352.284,346.210 359.746,344.507 365.514 L 343.098 370.286 346.838 370.286 C 348.895 370.286,352.424 369.514,354.681 368.571 C 357.487 367.399,362.770 366.857,371.392 366.857 L 384.000 366.857 384.000 339.638 C 384.000 324.668,383.439 309.384,382.753 305.673 C 381.852 300.799,381.852 298.811,382.753 298.511 C 383.582 298.235,384.000 292.209,384.000 280.548 L 384.000 263.001 380.000 263.650 C 376.871 264.158,376.000 263.914,376.000 262.529 C 376.000 257.023,380.923 254.992,382.822 259.714 C 383.470 261.327,383.876 248.015,383.910 224.000 C 383.940 202.943,383.587 186.258,383.125 186.923 C 381.993 188.553,376.886 192.000,375.603 192.000 C 375.030 192.000,374.942 190.347,375.403 188.286 C 377.538 178.752,377.912 176.000,377.071 176.000 C 376.572 176.000,375.389 175.226,374.443 174.280 C 372.912 172.749,372.778 173.658,373.217 182.566 M19.142 177.714 C 16.227 187.306,15.817 204.628,18.454 206.764 C 22.471 210.017,22.827 208.986,22.280 195.670 C 21.717 181.972,20.305 173.889,19.142 177.714 M254.540 181.661 C 254.070 183.457,253.283 184.079,252.068 183.613 C 250.952 183.185,250.286 183.556,250.286 184.607 C 250.286 185.530,250.764 186.286,251.349 186.286 C 251.981 186.286,252.023 187.643,251.452 189.632 C 250.737 192.126,250.902 193.135,252.103 193.596 C 253.013 193.945,253.746 195.848,253.787 197.964 C 253.848 201.155,254.003 201.358,254.824 199.328 C 256.488 195.214,257.355 184.694,256.269 181.799 L 255.229 179.026 254.540 181.661 M310.502 183.278 C 310.008 185.080,309.885 186.838,310.230 187.182 C 311.422 188.375,312.171 186.482,311.786 183.247 L 311.401 180.000 310.502 183.278 M105.792 187.286 C 105.436 189.565,105.598 194.000,106.152 197.143 C 106.903 201.402,107.194 201.960,107.294 199.333 C 107.368 197.395,107.806 195.433,108.266 194.972 C 111.126 192.112,111.598 185.579,109.032 184.368 C 106.629 183.234,106.391 183.448,105.792 187.286 M292.839 187.209 C 288.089 187.553,288.008 187.625,289.696 190.035 C 290.649 191.396,291.429 193.640,291.429 195.024 C 291.429 197.427,291.578 197.464,294.800 195.857 C 296.987 194.766,297.944 193.582,297.524 192.487 C 297.036 191.216,296.497 191.113,295.345 192.069 C 293.716 193.421,291.429 192.629,291.429 190.713 C 291.429 190.079,292.385 189.864,293.553 190.235 C 294.787 190.626,296.292 190.168,297.144 189.141 C 299.005 186.899,298.746 186.783,292.839 187.209 M298.477 188.690 C 297.650 190.014,297.572 190.857,298.276 190.857 C 298.910 190.857,299.429 191.629,299.429 192.571 C 299.429 194.416,300.475 194.689,303.335 193.592 C 305.261 192.853,305.865 189.714,304.082 189.714 C 303.498 189.714,302.303 188.996,301.425 188.119 C 300.060 186.754,299.635 186.836,298.477 188.690 M259.501 189.961 C 259.423 193.297,256.160 201.177,254.286 202.554 C 253.553 203.092,253.604 203.400,254.426 203.411 C 256.687 203.442,261.646 191.986,260.548 189.269 C 259.652 187.052,259.568 187.108,259.501 189.961 M284.762 196.000 C 284.762 198.933,285.028 201.068,285.352 200.743 C 285.677 200.418,285.943 198.284,285.943 196.000 C 285.943 193.716,285.677 191.582,285.352 191.257 C 285.028 190.932,284.762 193.067,284.762 196.000 M310.476 195.143 C 310.193 195.614,310.360 198.057,310.849 200.571 L 311.737 205.143 311.869 199.714 C 311.994 194.532,311.607 193.263,310.476 195.143 M138.271 195.810 C 136.933 197.180,138.549 206.857,140.115 206.857 C 141.952 206.857,142.198 205.524,140.653 203.943 C 140.069 203.346,139.426 201.137,139.224 199.034 C 139.022 196.931,138.593 195.480,138.271 195.810 M297.661 197.028 C 293.254 198.965,292.397 203.043,296.502 202.547 C 299.139 202.228,299.585 202.410,298.316 203.287 C 296.120 204.804,296.103 209.334,298.286 211.107 C 300.742 213.102,301.714 212.888,301.714 210.353 C 301.714 206.621,304.111 206.392,306.943 209.854 C 309.107 212.501,309.640 212.739,309.673 211.075 C 309.698 209.835,310.231 209.327,311.005 209.806 C 311.768 210.277,312.094 209.997,311.802 209.121 C 311.530 208.305,310.090 207.452,308.601 207.225 C 307.112 206.998,305.210 206.245,304.375 205.552 C 302.690 204.153,302.265 201.785,303.878 202.782 C 304.842 203.377,306.903 197.686,306.093 196.665 C 305.381 195.766,300.004 195.998,297.661 197.028 M86.072 209.374 C 85.990 219.840,86.289 222.476,87.556 222.476 C 88.528 222.476,89.143 221.250,89.143 219.312 C 89.143 217.572,89.629 214.870,90.224 213.306 C 92.481 207.370,92.552 201.143,90.362 201.143 C 89.255 201.143,87.860 200.047,87.262 198.707 C 86.491 196.977,86.146 200.071,86.072 209.374 M103.147 198.797 C 101.397 201.624,96.107 203.165,94.894 201.202 C 94.248 200.158,93.869 200.234,93.381 201.506 C 92.974 202.567,93.556 203.420,94.936 203.780 C 96.517 204.194,97.143 205.361,97.143 207.893 C 97.143 210.307,97.698 211.429,98.894 211.429 C 99.857 211.429,101.078 212.586,101.608 214.000 C 102.491 216.357,102.685 216.191,103.941 212.000 C 105.812 205.760,105.194 195.491,103.147 198.797 M266.055 199.485 C 265.698 200.082,265.052 202.886,264.620 205.714 C 264.187 208.543,263.579 211.757,263.268 212.857 C 262.957 213.957,263.170 214.857,263.740 214.857 C 265.052 214.857,267.429 209.721,267.429 206.885 C 267.429 205.702,268.237 203.927,269.224 202.939 C 270.772 201.391,270.785 201.143,269.320 201.143 C 268.384 201.143,267.413 200.525,267.162 199.771 C 266.901 198.990,266.424 198.867,266.055 199.485 M248.133 204.932 C 248.060 206.702,247.440 209.274,246.756 210.647 C 245.915 212.332,246.459 212.030,248.429 209.714 C 251.345 206.288,252.366 203.857,250.372 205.089 C 249.791 205.448,249.079 204.836,248.790 203.728 C 248.471 202.502,248.213 202.974,248.133 204.932 M253.813 207.649 C 253.758 209.028,252.783 210.828,251.644 211.649 C 248.099 214.208,247.814 215.714,250.878 215.714 C 252.438 215.714,253.714 215.264,253.714 214.714 C 253.714 214.164,254.871 213.706,256.286 213.697 C 258.066 213.685,258.403 213.391,257.380 212.742 C 256.568 212.227,255.455 210.306,254.907 208.474 C 254.094 205.757,253.893 205.605,253.813 207.649 M146.286 212.000 C 142.940 214.468,142.655 215.242,145.143 215.094 C 145.457 215.075,145.763 219.514,145.824 224.958 L 145.933 234.857 144.786 227.143 C 143.893 221.131,143.215 219.429,141.718 219.429 C 140.660 219.429,139.210 218.143,138.494 216.571 C 137.778 215.000,136.255 213.714,135.110 213.714 C 132.450 213.714,133.674 231.084,136.558 234.271 C 137.508 235.321,138.286 236.879,138.286 237.734 C 138.286 238.688,137.297 238.227,135.723 236.537 C 133.435 234.081,133.118 234.006,132.766 235.834 C 132.531 237.054,131.719 237.632,130.757 237.263 C 128.796 236.510,128.775 237.141,130.589 242.305 C 131.492 244.878,132.630 246.201,133.752 245.983 C 134.715 245.796,136.960 247.163,138.740 249.021 C 140.643 251.007,142.675 252.131,143.671 251.749 C 144.693 251.357,146.439 252.411,148.070 254.406 L 150.775 257.714 150.816 254.526 C 150.867 250.600,146.609 241.951,145.089 242.891 C 143.694 243.753,139.429 242.458,139.429 241.173 C 139.429 240.645,140.399 240.468,141.586 240.778 C 143.171 241.193,144.056 240.483,144.924 238.100 C 145.574 236.316,146.146 235.474,146.195 236.227 C 146.321 238.133,151.390 243.429,153.090 243.429 C 153.859 243.429,153.157 241.846,151.530 239.912 C 148.155 235.901,147.969 234.607,150.322 231.496 C 151.245 230.276,151.992 227.447,151.982 225.210 C 151.969 222.163,151.687 221.573,150.857 222.857 C 149.954 224.254,149.746 224.113,149.732 222.095 C 149.722 220.733,150.261 219.437,150.928 219.214 C 151.779 218.931,151.765 217.817,150.882 215.493 C 150.188 213.670,149.883 211.495,150.203 210.660 C 150.986 208.621,150.762 208.698,146.286 212.000 M296.187 212.918 C 295.463 213.790,294.559 216.064,294.177 217.970 C 293.199 222.865,295.709 224.066,298.804 220.184 C 301.269 217.093,305.143 216.049,305.143 218.476 C 305.143 219.210,305.436 219.517,305.793 219.159 C 306.878 218.074,303.575 213.714,301.668 213.714 C 300.688 213.714,299.350 213.178,298.694 212.523 C 297.868 211.697,297.100 211.817,296.187 212.918 M309.154 214.839 C 308.760 215.477,308.947 216.000,309.571 216.000 C 310.195 216.000,310.920 217.414,311.181 219.143 C 311.633 222.121,311.666 222.095,311.829 218.639 C 312.003 214.928,310.457 212.731,309.154 214.839 M16.000 231.387 C 16.000 245.391,16.063 245.761,18.262 244.584 C 23.098 241.996,29.714 246.427,29.714 252.254 C 29.714 256.464,33.838 255.665,34.714 251.286 C 36.213 243.791,35.797 242.702,31.617 243.190 C 27.134 243.713,21.714 238.444,21.714 233.561 C 21.714 229.208,19.194 220.179,17.508 218.490 C 16.259 217.239,16.000 219.456,16.000 231.387 M128.288 221.143 C 128.301 223.657,128.535 224.551,128.808 223.130 C 129.082 221.708,129.071 219.651,128.785 218.558 C 128.499 217.465,128.276 218.629,128.288 221.143 M254.080 219.875 C 254.566 221.142,253.836 222.915,252.024 224.869 C 249.529 227.560,249.402 228.107,250.893 229.754 C 251.816 230.774,252.571 232.531,252.571 233.658 C 252.571 235.527,252.797 235.557,255.143 234.000 C 257.600 232.369,258.998 225.143,256.857 225.143 C 256.386 225.143,256.000 224.308,256.000 223.289 C 256.000 221.810,256.331 221.709,257.635 222.791 C 258.944 223.878,259.530 223.660,260.582 221.694 C 261.763 219.487,261.628 219.276,259.233 219.585 C 257.769 219.775,255.841 219.475,254.949 218.920 C 253.714 218.152,253.506 218.381,254.080 219.875 M98.571 223.695 C 97.786 223.968,97.143 225.905,97.143 228.000 C 97.143 230.095,96.623 231.983,95.989 232.194 C 95.354 232.406,94.617 234.765,94.351 237.437 C 94.085 240.109,93.062 243.101,92.077 244.086 C 88.575 247.589,91.274 250.671,94.939 247.354 C 97.092 245.406,97.388 245.566,104.236 252.350 C 112.462 260.500,112.187 260.464,110.637 253.196 C 109.819 249.359,109.808 246.970,110.602 245.699 C 111.483 244.287,111.264 243.519,109.700 242.542 C 108.150 241.574,107.435 239.131,106.838 232.765 C 106.113 225.023,105.843 224.330,103.762 224.874 C 102.507 225.202,101.147 224.960,100.740 224.335 C 100.333 223.711,99.357 223.423,98.571 223.695 M86.393 224.969 C 86.063 225.502,85.865 231.802,85.951 238.969 C 86.038 246.136,86.312 250.577,86.561 248.838 C 86.833 246.931,87.505 245.980,88.252 246.441 C 89.121 246.979,89.216 245.706,88.569 242.175 C 88.062 239.407,87.598 234.186,87.538 230.571 C 87.423 223.692,87.364 223.399,86.393 224.969 M300.251 225.471 C 299.941 226.280,300.310 228.466,301.071 230.328 L 302.456 233.714 303.223 229.883 C 304.229 224.857,301.845 221.318,300.251 225.471 M309.639 228.198 C 308.761 230.508,308.864 231.640,310.063 232.838 C 311.415 234.190,311.648 233.741,311.648 229.783 C 311.648 224.351,311.228 224.019,309.639 228.198 M241.883 230.280 C 240.997 231.166,240.027 231.646,239.727 231.347 C 239.428 231.047,238.467 231.714,237.591 232.830 C 236.173 234.637,236.200 234.701,237.848 233.414 C 239.358 232.236,239.959 232.288,241.131 233.700 C 241.920 234.651,243.239 235.429,244.063 235.429 C 244.886 235.429,245.913 236.541,246.345 237.900 C 246.994 239.947,247.296 240.074,248.100 238.638 C 250.449 234.440,245.021 227.142,241.883 230.280 M355.717 237.143 C 355.729 239.657,355.964 240.551,356.237 239.130 C 356.510 237.708,356.500 235.651,356.214 234.558 C 355.928 233.465,355.704 234.629,355.717 237.143 M194.782 236.837 C 195.359 241.181,196.678 243.316,198.380 242.663 C 199.271 242.321,200.000 242.594,200.000 243.270 C 200.000 243.947,200.854 244.172,201.902 243.770 C 202.983 243.355,203.513 243.511,203.129 244.132 C 201.584 246.631,221.642 245.038,224.406 242.441 C 225.835 241.099,227.743 239.992,228.645 239.982 C 229.547 239.973,231.057 239.459,232.000 238.841 C 233.207 238.050,232.530 237.934,229.714 238.448 C 227.514 238.850,225.037 239.712,224.209 240.364 C 221.263 242.684,202.286 242.498,202.286 240.149 C 202.286 238.428,200.539 237.058,195.219 234.605 C 194.789 234.407,194.592 235.411,194.782 236.837 M235.429 236.992 C 235.429 237.943,235.971 239.057,236.634 239.467 C 237.435 239.962,237.243 241.120,236.062 242.923 C 233.958 246.134,233.861 246.857,235.534 246.857 C 237.690 246.857,242.479 242.541,240.905 242.016 C 240.120 241.754,239.467 240.303,239.453 238.791 C 239.438 237.095,238.662 235.891,237.429 235.651 C 236.233 235.418,235.429 235.957,235.429 236.992 M285.192 237.635 C 284.047 239.488,286.535 240.051,288.010 238.273 C 289.159 236.890,289.089 236.571,287.636 236.571 C 286.653 236.571,285.553 237.050,285.192 237.635 M276.000 242.515 C 270.262 250.404,266.049 259.480,267.380 261.084 C 268.024 261.861,268.213 262.834,267.800 263.248 C 267.386 263.662,267.364 264.000,267.751 264.000 C 270.036 264.000,274.365 257.618,277.635 249.429 C 279.706 244.243,281.887 240.000,282.482 240.000 C 283.077 240.000,283.246 239.486,282.857 238.857 C 281.520 236.693,279.420 237.813,276.000 242.515 M310.857 240.504 C 310.857 242.038,310.373 243.593,309.781 243.959 C 308.396 244.815,308.863 252.518,310.322 252.873 C 310.938 253.023,311.523 249.722,311.641 245.429 C 311.757 241.186,311.629 237.714,311.355 237.714 C 311.081 237.714,310.857 238.970,310.857 240.504 M155.429 241.356 C 155.429 242.342,156.200 243.789,157.143 244.571 C 159.324 246.382,159.302 244.684,157.107 241.782 C 155.763 240.006,155.429 239.921,155.429 241.356 M230.875 240.857 C 230.927 243.413,233.147 245.137,234.225 243.459 C 234.947 242.336,234.852 241.485,233.940 240.905 C 232.182 239.787,230.852 239.767,230.875 240.857 M227.097 242.571 C 225.020 244.124,226.220 247.739,228.371 246.410 C 229.247 245.868,229.918 241.143,229.118 241.143 C 229.058 241.143,228.148 241.786,227.097 242.571 M284.397 246.004 C 283.358 248.673,281.920 253.429,281.202 256.571 C 280.484 259.714,279.628 263.186,279.300 264.286 C 278.800 265.960,279.459 266.286,283.352 266.286 C 288.669 266.286,288.548 266.456,286.293 262.131 C 283.703 257.164,287.049 249.504,289.877 253.926 C 295.301 262.405,293.353 276.047,287.548 270.242 C 285.421 268.115,284.571 268.127,284.571 270.286 C 284.571 271.254,285.595 272.000,286.925 272.000 C 288.503 272.000,288.995 272.470,288.419 273.429 C 287.737 274.565,287.918 274.569,289.303 273.448 C 290.699 272.319,291.480 272.376,293.237 273.736 C 295.093 275.174,295.122 275.328,293.429 274.738 C 291.959 274.226,291.429 274.646,291.429 276.323 C 291.429 279.871,287.245 284.560,286.283 282.089 C 285.873 281.038,286.058 279.208,286.693 278.022 C 287.777 275.996,287.426 275.896,280.907 276.367 C 275.414 276.765,274.158 276.559,274.885 275.383 C 275.554 274.302,275.261 274.106,273.808 274.663 C 272.711 275.084,271.598 275.429,271.335 275.429 C 269.724 275.429,271.273 277.556,273.263 278.077 C 274.587 278.423,275.474 279.293,275.235 280.010 C 274.996 280.727,274.299 281.147,273.686 280.943 C 273.073 280.739,272.659 280.307,272.767 279.985 C 273.221 278.624,267.568 276.846,267.053 278.188 C 265.655 281.830,269.449 283.723,277.802 283.552 C 285.650 283.390,289.875 284.748,288.491 286.987 C 287.759 288.172,291.816 288.375,292.979 287.211 C 293.413 286.777,292.342 285.790,290.598 285.018 L 287.429 283.614 290.868 283.521 C 293.056 283.462,294.853 282.554,295.808 281.025 C 296.907 279.266,298.168 278.748,300.516 279.093 C 302.856 279.436,304.105 278.928,305.139 277.210 C 306.096 275.619,306.122 275.264,305.218 276.116 C 304.484 276.808,302.615 277.133,301.067 276.837 C 297.842 276.220,296.115 274.286,298.790 274.286 C 299.950 274.286,300.571 273.241,300.571 271.289 C 300.571 268.630,300.785 268.469,302.461 269.860 C 303.501 270.723,305.301 271.268,306.461 271.071 C 308.440 270.736,308.741 271.235,309.036 275.335 C 309.489 281.635,311.429 276.153,311.429 268.573 C 311.429 263.544,311.025 259.430,310.531 259.429 C 310.038 259.429,310.138 258.486,310.755 257.333 C 311.602 255.751,311.472 255.238,310.224 255.238 C 309.180 255.238,308.571 256.405,308.571 258.409 C 308.571 261.676,307.222 263.412,305.793 261.984 C 304.323 260.513,301.169 261.108,299.649 263.143 C 297.936 265.438,295.551 265.849,296.333 263.714 C 296.621 262.929,297.391 262.399,298.043 262.538 C 298.695 262.677,299.761 261.263,300.412 259.395 C 301.063 257.528,302.076 256.000,302.664 256.000 C 304.267 256.000,305.051 251.794,303.701 250.444 C 303.054 249.796,301.056 249.560,299.262 249.919 C 296.845 250.402,296.000 250.131,296.000 248.873 C 296.000 246.861,290.680 247.457,289.952 249.550 C 289.702 250.269,289.701 249.506,289.951 247.856 C 290.219 246.086,289.644 244.093,288.550 242.999 C 286.201 240.650,286.591 240.367,284.397 246.004 M355.651 246.857 C 355.628 249.686,355.868 251.357,356.185 250.571 C 356.503 249.786,357.490 249.143,358.381 249.143 C 359.271 249.143,360.000 248.130,360.000 246.893 C 360.000 245.425,359.439 244.858,358.386 245.263 C 357.436 245.627,356.549 245.023,356.233 243.798 C 355.936 242.652,355.675 244.029,355.651 246.857 M297.143 244.598 C 297.143 245.251,297.936 246.091,298.906 246.463 C 301.587 247.491,301.902 246.381,299.377 244.804 C 297.963 243.921,297.143 243.845,297.143 244.598 M155.055 247.324 C 154.715 248.210,155.970 251.352,157.844 254.306 C 159.717 257.260,161.052 260.264,160.811 260.982 C 159.830 263.888,163.820 265.006,166.380 262.542 L 168.835 260.180 166.590 256.376 C 161.745 248.163,156.356 243.935,155.055 247.324 M204.571 246.831 C 204.571 247.592,205.600 248.483,206.857 248.812 C 208.933 249.354,209.338 249.974,209.045 252.158 C 208.934 252.991,211.552 254.813,212.897 254.840 C 213.391 254.849,213.227 253.796,212.532 252.498 C 211.595 250.748,211.621 249.717,212.632 248.498 C 213.733 247.172,213.584 246.854,211.854 246.842 C 210.677 246.833,208.557 246.516,207.143 246.137 C 205.513 245.700,204.571 245.954,204.571 246.831 M218.000 246.471 C 218.786 246.788,219.429 247.742,219.429 248.590 C 219.429 249.438,220.457 250.458,221.714 250.857 C 222.971 251.256,224.000 252.165,224.000 252.877 C 224.000 253.814,224.370 253.801,225.342 252.830 C 226.978 251.194,221.599 245.661,218.513 245.805 C 217.322 245.860,217.124 246.118,218.000 246.471 M163.429 248.571 C 164.211 249.514,165.366 250.286,165.994 250.286 C 166.632 250.286,166.508 249.528,165.714 248.571 C 164.932 247.629,163.777 246.857,163.149 246.857 C 162.511 246.857,162.635 247.615,163.429 248.571 M95.014 251.489 C 93.689 254.481,93.713 255.254,95.179 256.917 C 96.119 257.984,97.245 260.533,97.680 262.581 C 98.115 264.629,99.458 266.833,100.664 267.478 C 101.870 268.124,102.857 269.379,102.857 270.268 C 102.857 274.718,117.628 281.707,125.225 280.851 C 129.217 280.401,131.004 280.718,132.412 282.126 C 133.601 283.315,136.046 283.961,139.099 283.895 C 142.307 283.824,143.656 284.206,143.143 285.038 C 142.720 285.724,143.769 285.374,145.473 284.259 C 147.177 283.145,148.571 282.759,148.571 283.402 C 148.571 284.045,149.359 284.571,150.322 284.571 C 151.284 284.571,152.368 285.343,152.730 286.286 C 153.091 287.229,153.847 288.000,154.408 288.000 C 154.969 288.000,155.429 287.229,155.429 286.286 C 155.429 285.198,156.523 284.571,158.426 284.571 C 160.960 284.571,161.203 284.836,160.000 286.286 C 158.818 287.710,158.955 288.000,160.812 288.000 C 164.182 288.000,164.647 286.892,162.593 283.757 C 161.007 281.336,160.958 280.557,162.264 278.459 C 163.653 276.230,163.621 276.145,161.922 277.549 C 160.505 278.719,159.227 278.811,156.683 277.924 C 154.033 277.001,153.186 277.097,152.695 278.376 C 151.649 281.102,148.292 280.396,149.168 277.634 C 149.737 275.843,149.339 275.117,147.531 274.644 C 144.148 273.759,143.942 264.000,147.306 264.000 C 148.496 264.000,149.776 263.202,150.150 262.226 C 150.529 261.239,150.345 260.753,149.735 261.130 C 149.132 261.503,148.325 260.560,147.942 259.035 C 146.925 254.982,143.878 256.405,141.107 262.226 L 138.786 267.102 141.107 268.122 C 146.185 270.355,144.756 274.613,139.238 273.696 C 130.002 272.161,121.615 265.567,117.656 256.728 L 115.679 252.313 115.255 257.653 L 114.830 262.993 120.160 265.439 C 126.568 268.378,129.815 272.930,127.632 275.915 C 124.889 279.667,113.143 269.068,113.143 262.840 C 113.143 262.221,112.371 261.714,111.429 261.714 C 110.486 261.714,109.714 260.943,109.714 260.000 C 109.714 258.942,108.641 258.286,106.912 258.286 C 104.877 258.286,103.141 256.878,100.571 253.143 C 96.369 247.034,96.914 247.196,95.014 251.489 M296.571 253.714 C 296.970 254.360,296.034 254.857,294.421 254.857 C 292.849 254.857,291.246 254.343,290.857 253.714 C 290.458 253.069,291.394 252.571,293.008 252.571 C 294.579 252.571,296.183 253.086,296.571 253.714 M261.934 257.368 C 259.185 261.826,257.600 267.429,259.086 267.429 C 260.741 267.429,264.749 264.077,263.143 264.036 C 261.156 263.986,261.360 261.032,263.583 257.638 C 264.611 256.069,265.184 254.518,264.857 254.190 C 264.529 253.862,263.214 255.293,261.934 257.368 M16.000 271.380 L 16.000 283.332 21.254 286.411 C 26.689 289.596,29.535 288.805,27.875 284.571 C 27.506 283.629,26.915 280.826,26.564 278.344 C 26.196 275.751,24.299 271.703,22.105 268.828 C 20.004 266.076,18.286 262.836,18.286 261.627 C 18.286 260.418,17.771 259.429,17.143 259.429 C 16.454 259.429,16.000 264.174,16.000 271.380 M173.714 265.065 C 173.714 268.784,173.227 270.857,172.353 270.857 C 171.604 270.857,171.990 271.612,173.210 272.535 C 174.815 273.749,178.433 274.196,186.286 274.153 L 197.143 274.093 192.286 271.860 C 189.614 270.632,187.429 268.905,187.429 268.022 C 187.429 266.117,182.905 262.692,181.520 263.548 C 180.990 263.876,179.016 263.048,177.135 261.709 L 173.714 259.273 173.714 265.065 M254.000 260.738 C 253.214 261.526,252.571 262.794,252.571 263.555 C 252.571 264.945,243.885 269.714,241.353 269.714 C 240.609 269.714,240.000 270.182,240.000 270.754 C 240.000 271.325,242.676 271.087,245.947 270.224 C 249.218 269.362,252.094 268.856,252.339 269.101 C 253.071 269.833,246.103 273.089,241.466 274.181 L 237.143 275.199 241.714 275.430 C 244.229 275.556,248.086 275.624,250.286 275.580 L 254.286 275.500 249.143 277.904 C 243.397 280.588,241.737 282.371,243.775 283.667 C 246.251 285.241,248.866 284.610,249.472 282.291 C 249.800 281.038,250.889 279.752,251.891 279.434 C 257.923 277.525,257.745 277.651,255.968 276.527 C 254.622 275.676,254.771 275.460,256.717 275.446 C 258.055 275.436,259.789 276.200,260.571 277.143 C 263.817 281.054,266.260 278.262,265.329 271.706 C 264.901 268.698,258.286 267.082,258.286 269.986 C 258.286 270.931,255.418 272.228,250.286 273.603 C 247.529 274.342,247.539 274.306,250.571 272.577 C 252.300 271.591,253.714 270.256,253.714 269.610 C 253.714 268.965,254.193 268.732,254.778 269.094 C 256.485 270.149,256.950 268.318,256.163 263.652 C 255.575 260.170,255.144 259.589,254.000 260.738 M309.143 266.286 C 309.143 267.426,308.209 267.896,306.356 267.690 C 302.960 267.311,302.392 266.820,303.422 265.154 C 304.552 263.325,309.143 264.234,309.143 266.286 M146.877 268.539 C 146.534 269.095,147.262 269.870,148.497 270.262 C 150.026 270.747,150.509 271.593,150.013 272.916 C 149.379 274.610,149.532 274.657,151.215 273.289 C 152.776 272.018,153.474 271.995,154.885 273.166 C 155.843 273.961,156.865 274.373,157.156 274.082 C 157.779 273.459,152.305 269.314,149.465 268.258 C 148.385 267.857,147.221 267.983,146.877 268.539 M214.571 269.408 C 217.243 269.649,221.614 269.649,224.286 269.408 C 226.957 269.168,224.771 268.971,219.429 268.971 C 214.086 268.971,211.900 269.168,214.571 269.408 M161.357 273.214 C 161.632 274.039,162.532 274.939,163.357 275.214 C 164.214 275.500,164.643 275.071,164.357 274.214 C 164.082 273.389,163.182 272.489,162.357 272.214 C 161.500 271.929,161.071 272.357,161.357 273.214 M33.429 274.808 C 26.970 276.709,27.875 284.000,34.570 284.000 C 39.927 284.000,42.286 282.485,42.286 279.046 C 42.286 277.380,41.709 276.936,40.094 277.359 C 38.588 277.752,37.783 277.271,37.522 275.823 C 37.195 274.007,36.628 273.866,33.429 274.808 M210.286 274.286 C 214.691 275.696,217.040 275.696,214.857 274.286 C 213.914 273.676,211.857 273.221,210.286 273.274 L 207.429 273.371 210.286 274.286 M199.233 278.234 C 191.162 281.752,192.100 284.558,201.388 284.685 C 212.700 284.840,215.419 285.712,215.467 289.199 C 215.492 291.031,214.701 292.257,213.181 292.743 C 211.828 293.176,213.245 293.469,216.571 293.445 C 219.714 293.422,221.129 293.180,219.714 292.908 C 216.776 292.342,216.500 290.659,218.839 287.571 C 219.985 286.057,221.065 285.704,222.517 286.368 C 225.505 287.734,230.950 287.705,230.485 286.324 C 230.266 285.675,228.588 285.263,226.757 285.410 C 224.317 285.606,223.982 285.443,225.500 284.798 C 227.174 284.089,226.457 283.432,221.775 281.388 C 214.482 278.204,212.822 278.211,212.365 281.429 C 212.164 282.843,211.486 283.743,210.857 283.429 C 210.229 283.114,209.862 281.700,210.043 280.286 C 210.287 278.383,209.791 277.714,208.137 277.714 C 206.907 277.714,205.216 277.476,204.379 277.185 C 203.542 276.893,201.226 277.366,199.233 278.234 M165.564 281.534 C 166.265 282.377,166.499 283.406,166.085 283.819 C 165.672 284.233,166.511 284.571,167.949 284.571 C 170.047 284.571,170.306 284.885,169.254 286.152 C 168.242 287.371,168.341 287.886,169.685 288.402 C 170.644 288.770,171.429 289.889,171.429 290.889 C 171.429 291.888,170.950 292.410,170.365 292.049 C 169.780 291.687,169.058 291.785,168.761 292.267 C 168.464 292.749,173.186 293.198,179.253 293.265 C 186.302 293.343,188.635 293.114,185.714 292.631 C 179.941 291.676,176.000 289.549,176.000 287.388 C 176.000 286.468,175.268 285.714,174.373 285.714 C 173.479 285.714,171.219 284.429,169.351 282.857 C 165.713 279.795,163.472 279.012,165.564 281.534 M154.286 283.673 C 154.286 284.302,153.472 284.504,152.478 284.122 C 151.484 283.741,150.425 283.429,150.125 283.429 C 149.825 283.429,149.883 282.937,150.255 282.336 C 151.075 281.009,154.286 282.074,154.286 283.673 M260.692 282.443 C 259.186 283.012,257.044 283.188,255.931 282.835 C 254.817 282.482,253.576 282.728,253.172 283.382 C 252.704 284.139,254.308 284.571,257.579 284.571 C 260.408 284.571,263.061 284.023,263.476 283.353 C 264.588 281.553,263.763 281.283,260.692 282.443 M296.474 282.443 C 296.226 282.844,297.475 283.386,299.250 283.646 C 301.046 283.910,302.476 283.586,302.476 282.917 C 302.476 281.633,297.231 281.219,296.474 282.443 M183.429 286.857 C 183.817 287.486,185.163 288.000,186.421 288.000 C 187.678 288.000,188.388 287.486,188.000 286.857 C 187.612 286.229,186.265 285.714,185.008 285.714 C 183.751 285.714,183.040 286.229,183.429 286.857 M195.079 286.445 C 193.451 288.073,195.842 289.169,199.518 288.479 C 204.175 287.606,205.224 290.781,200.857 292.536 C 198.626 293.433,198.852 293.579,202.571 293.642 C 207.296 293.722,207.444 293.536,205.543 289.925 C 203.502 286.046,197.480 284.044,195.079 286.445 M207.990 289.727 C 206.814 291.143,206.984 291.429,209.003 291.429 C 210.337 291.429,211.429 290.945,211.429 290.353 C 211.429 288.373,209.417 288.007,207.990 289.727 M0.000 297.211 C 0.000 303.277,3.548 305.596,5.143 300.571 C 5.542 299.314,6.378 298.286,7.002 298.286 C 7.625 298.286,7.844 297.815,7.489 297.240 C 7.134 296.666,8.260 295.643,9.993 294.968 L 13.143 293.741 9.714 294.307 C 7.828 294.619,4.872 294.129,3.143 293.219 L 0.000 291.564 0.000 297.211 M272.571 292.571 C 272.147 293.258,273.603 293.707,276.218 293.697 C 279.450 293.684,280.130 293.394,278.857 292.571 C 276.622 291.127,273.464 291.127,272.571 292.571 M360.222 295.479 C 360.361 299.172,362.286 301.345,362.286 297.808 C 362.286 296.916,362.572 295.440,362.923 294.527 C 363.273 293.614,362.775 292.565,361.817 292.197 C 360.447 291.672,360.105 292.374,360.222 295.479 M243.714 293.359 C 244.814 293.647,246.614 293.647,247.714 293.359 C 248.814 293.072,247.914 292.837,245.714 292.837 C 243.514 292.837,242.614 293.072,243.714 293.359 M25.792 299.095 C 23.202 300.461,21.970 300.567,20.364 299.564 C 17.041 297.489,17.965 300.098,21.651 303.200 C 23.502 304.757,24.787 306.346,24.508 306.730 C 24.229 307.114,24.323 307.191,24.718 306.901 C 25.470 306.348,34.987 313.610,37.392 316.571 C 40.254 320.096,38.729 315.703,35.586 311.368 C 33.787 308.887,31.601 304.713,30.729 302.092 L 29.143 297.327 25.792 299.095 M14.342 303.695 C 13.562 305.726,15.468 307.384,18.612 307.411 C 20.256 307.425,20.429 307.012,19.501 305.277 C 17.913 302.312,15.193 301.477,14.342 303.695 M0.000 337.103 C 0.000 354.083,0.153 355.429,2.086 355.429 C 6.990 355.429,9.413 360.323,8.540 368.468 C 7.780 375.569,6.764 377.480,5.143 374.857 C 1.851 369.531,0.000 373.851,0.000 386.857 L 0.000 400.000 192.000 400.000 L 384.000 400.000 384.001 386.571 L 384.003 373.143 360.812 373.847 C 341.374 374.437,336.982 374.892,333.668 376.658 C 326.568 380.443,253.580 379.350,249.894 375.403 C 248.882 374.321,248.058 374.373,246.122 375.641 C 243.019 377.674,237.607 377.758,230.484 375.884 C 226.342 374.794,223.811 374.740,220.331 375.669 C 216.465 376.701,202.718 376.869,178.571 376.178 C 176.529 376.119,174.857 375.596,174.857 375.015 C 174.857 373.269,177.904 372.655,179.457 374.089 C 180.580 375.127,180.714 375.089,180.053 373.924 C 179.517 372.978,179.773 372.497,180.742 372.630 C 181.591 372.747,191.568 372.781,202.913 372.707 L 223.541 372.571 223.087 368.683 C 222.761 365.889,223.276 364.153,224.918 362.511 C 227.663 359.766,226.170 359.369,211.525 358.949 C 204.649 358.752,202.350 358.227,200.406 356.407 C 199.054 355.141,197.653 354.603,197.281 355.205 C 196.108 357.104,192.246 357.513,189.406 356.040 C 185.633 354.082,171.602 352.893,167.429 354.177 L 164.000 355.232 167.143 355.330 C 171.125 355.455,171.522 360.405,167.917 364.989 C 165.954 367.485,165.856 368.000,167.346 368.000 C 168.968 368.000,169.318 368.631,169.058 371.086 C 169.011 371.527,170.040 372.281,171.343 372.763 C 173.628 373.609,173.646 373.780,171.841 377.566 C 168.885 383.765,163.458 384.923,150.073 382.213 C 147.975 381.788,147.516 382.286,147.216 385.312 C 146.982 387.663,145.747 389.742,143.665 391.290 L 140.473 393.663 128.808 389.785 C 122.392 387.652,116.081 384.964,114.783 383.811 C 113.486 382.658,111.857 381.714,111.164 381.714 C 110.472 381.714,109.645 381.071,109.328 380.286 C 108.984 379.432,108.716 379.662,108.662 380.857 C 108.612 381.957,109.214 382.866,110.000 382.876 C 110.786 382.887,109.653 384.032,107.483 385.421 C 101.126 389.490,72.246 388.961,65.268 384.649 C 64.422 384.126,59.034 383.522,53.294 383.307 C 47.554 383.092,41.314 382.473,39.429 381.932 C 37.285 381.317,35.271 381.396,34.056 382.143 C 31.719 383.579,19.116 381.283,15.524 378.766 C 14.249 377.873,12.377 377.143,11.365 377.143 C 10.352 377.143,9.524 376.348,9.524 375.377 C 9.524 372.893,29.307 373.292,45.526 376.102 C 63.897 379.285,67.535 378.000,55.714 372.504 C 51.348 370.474,49.092 368.548,47.429 365.432 C 46.171 363.076,44.323 361.148,43.320 361.146 C 36.959 361.135,29.582 335.807,34.702 331.558 C 38.185 328.667,32.311 325.847,17.798 323.442 C 10.564 322.244,3.601 320.704,2.323 320.020 C 0.032 318.794,0.000 319.033,0.000 337.103 M43.363 327.508 C 42.283 328.809,42.375 329.143,43.812 329.143 C 47.534 329.143,54.857 337.622,54.857 341.932 C 54.857 348.259,58.252 350.653,62.633 347.413 C 66.489 344.563,70.857 345.749,70.857 349.648 C 70.857 351.238,71.455 351.630,73.190 351.176 C 76.663 350.268,75.338 348.339,69.048 345.143 C 60.872 340.989,53.594 335.695,48.866 330.461 C 45.392 326.616,44.500 326.137,43.363 327.508 M100.156 339.688 C 99.773 341.117,99.453 343.538,99.444 345.069 C 99.436 346.600,98.285 349.070,96.887 350.558 C 94.728 352.857,94.599 353.427,96.030 354.356 C 98.728 356.107,103.277 357.024,103.659 355.895 C 103.851 355.324,105.164 353.099,106.576 350.949 C 111.837 342.939,112.043 342.401,110.238 341.391 C 109.322 340.878,108.571 339.817,108.571 339.034 C 108.571 336.209,100.929 336.803,100.156 339.688 M114.587 337.963 C 116.324 338.226,118.896 338.219,120.301 337.947 C 121.707 337.676,120.286 337.461,117.143 337.470 C 114.000 337.478,112.850 337.700,114.587 337.963 M126.592 337.971 C 128.646 338.225,131.732 338.220,133.449 337.959 C 135.166 337.699,133.486 337.491,129.714 337.497 C 125.943 337.503,124.538 337.717,126.592 337.971 M140.306 337.971 C 142.360 338.225,145.446 338.220,147.163 337.959 C 148.881 337.699,147.200 337.491,143.429 337.497 C 139.657 337.503,138.252 337.717,140.306 337.971 M193.444 337.963 C 195.181 338.226,197.753 338.219,199.159 337.947 C 200.564 337.676,199.143 337.461,196.000 337.470 C 192.857 337.478,191.707 337.700,193.444 337.963 M208.017 339.397 C 206.960 341.372,207.120 341.714,209.103 341.714 C 210.382 341.714,211.429 340.973,211.429 340.067 C 211.429 337.335,209.340 336.924,208.017 339.397 M221.358 338.086 C 217.857 338.752,220.588 340.571,225.088 340.571 C 227.924 340.571,229.701 339.968,230.126 338.861 C 230.767 337.190,227.562 336.907,221.358 338.086 M273.429 337.931 C 274.529 338.218,276.329 338.218,277.429 337.931 C 278.529 337.643,277.629 337.408,275.429 337.408 C 273.229 337.408,272.329 337.643,273.429 337.931 M289.412 338.082 C 286.102 338.552,287.262 340.571,290.842 340.571 C 293.814 340.571,298.286 345.377,298.286 348.571 C 298.286 351.204,293.981 356.571,291.871 356.571 C 290.948 356.571,288.687 357.685,286.846 359.046 C 283.617 361.433,283.202 361.465,275.178 359.929 C 270.601 359.053,266.214 358.397,265.429 358.470 C 264.643 358.543,264.000 358.146,264.000 357.587 C 264.000 357.029,264.874 356.571,265.943 356.571 C 267.166 356.571,267.484 356.172,266.800 355.492 C 265.197 353.899,240.894 353.663,238.220 355.214 C 236.056 356.469,236.060 356.503,238.372 356.537 C 240.645 356.570,245.714 360.875,245.714 362.772 C 245.714 363.650,239.318 362.829,235.881 361.510 C 234.473 360.970,234.425 361.341,235.574 363.863 C 236.605 366.125,236.620 367.556,235.637 369.714 C 234.353 372.530,234.408 372.571,239.453 372.571 C 244.531 372.571,244.571 372.540,244.571 368.613 C 244.571 361.000,255.030 356.821,265.033 360.437 L 268.922 361.844 265.635 364.430 C 263.210 366.337,261.440 366.844,258.888 366.361 C 256.985 366.000,254.271 365.480,252.857 365.204 C 250.755 364.794,250.286 365.213,250.286 367.494 L 250.286 370.286 291.322 370.286 C 331.657 370.286,332.347 370.247,331.766 368.023 C 331.440 366.778,332.218 363.756,333.495 361.307 L 335.816 356.854 332.997 355.570 C 331.447 354.864,327.865 354.286,325.037 354.286 C 316.051 354.286,311.432 346.793,316.470 340.389 L 318.654 337.612 305.327 337.663 C 297.997 337.691,290.835 337.880,289.412 338.082 M321.429 337.931 C 322.529 338.218,324.329 338.218,325.429 337.931 C 326.529 337.643,325.629 337.408,323.429 337.408 C 321.229 337.408,320.329 337.643,321.429 337.931 M345.429 337.961 C 347.157 338.223,349.986 338.223,351.714 337.961 C 353.443 337.700,352.029 337.485,348.571 337.485 C 345.114 337.485,343.700 337.700,345.429 337.961 M200.000 342.857 C 200.000 344.302,202.335 344.302,204.571 342.857 C 205.907 341.994,205.592 341.745,203.143 341.732 C 201.414 341.722,200.000 342.229,200.000 342.857 M156.571 355.429 C 158.806 356.873,161.964 356.873,162.857 355.429 C 163.281 354.742,161.825 354.293,159.210 354.303 C 155.979 354.316,155.299 354.606,156.571 355.429 M134.857 358.857 C 133.471 359.753,133.635 359.968,135.714 359.982 C 137.129 359.992,138.286 359.486,138.286 358.857 C 138.286 357.425,137.073 357.425,134.857 358.857 M120.000 360.571 C 118.814 362.000,118.966 362.286,120.909 362.286 C 122.192 362.286,124.184 362.639,125.335 363.071 C 127.100 363.733,127.206 363.582,126.010 362.109 C 125.230 361.148,124.930 360.023,125.343 359.609 C 125.757 359.196,125.044 358.857,123.759 358.857 C 122.474 358.857,120.783 359.629,120.000 360.571 M71.358 364.235 L 69.002 367.184 71.764 369.946 C 73.745 371.926,74.391 373.622,74.050 375.942 C 73.472 379.885,76.702 380.571,95.842 380.571 C 106.924 380.571,107.732 380.428,105.488 378.856 C 102.028 376.432,101.039 370.915,103.414 367.290 C 107.034 361.766,105.528 361.136,88.893 361.214 C 73.985 361.284,73.672 361.338,71.358 364.235 M142.857 368.268 C 142.857 375.020,139.768 376.549,125.608 376.801 C 115.098 376.989,112.535 377.371,111.692 378.877 C 109.626 382.569,132.266 380.596,144.951 375.979 L 155.616 372.097 151.312 370.607 C 148.945 369.788,146.075 368.272,144.933 367.239 C 142.979 365.470,142.857 365.530,142.857 368.268 " stroke="none" fill="#000000" fill-rule="evenodd"></path></g></svg>