<svg version="1.0" xmlns="http://www.w3.org/2000/svg"
 viewBox="0 0 350.000000 350.000000"
 preserveAspectRatio="xMidYMid meet"><g transform="translate(0.000000,350.000000) scale(0.100000,-0.100000)"
fill="#fff"><path d="M1710 3141 c-14 -5 -41 -17 -60 -28 -34 -19 -486 -279 -664 -382 -49
-28 -90 -51 -92 -51 -2 0 -27 -15 -56 -33 -29 -19 -61 -37 -71 -40 -9 -4 -44
-25 -77 -47 -32 -22 -63 -40 -68 -40 -5 0 -28 -20 -51 -45 l-41 -45 0 -678 0
-679 35 -34 c19 -19 62 -51 97 -70 35 -20 155 -89 268 -154 113 -65 219 -126
235 -135 17 -9 107 -61 200 -115 94 -54 184 -106 200 -115 17 -9 56 -32 88
-50 83 -47 120 -41 272 45 66 37 140 79 165 93 49 28 167 96 325 187 55 32
156 90 225 130 69 39 143 82 165 96 22 13 52 31 67 38 107 54 104 29 98 793
l-5 657 -33 34 c-18 19 -45 40 -60 48 -15 8 -55 31 -90 51 -34 21 -65 38 -67
38 -3 0 -22 11 -43 23 -35 22 -389 228 -477 277 -22 12 -92 53 -155 90 -242
142 -276 157 -330 141z m109 -385 c57 -29 108 -57 160 -90 22 -15 43 -26 45
-26 2 0 40 -21 83 -46 143 -85 315 -184 320 -184 2 0 29 -16 60 -36 46 -29 62
-35 89 -29 110 20 197 -82 149 -175 -63 -123 -245 -76 -245 64 0 18 -13 30
-57 55 -91 49 -167 92 -178 101 -5 4 -30 18 -55 32 -25 14 -90 51 -145 83 -55
32 -144 83 -198 113 l-97 54 -61 -32 c-34 -17 -90 -49 -125 -71 -36 -21 -67
-39 -70 -39 -3 0 -30 -16 -60 -35 -30 -19 -56 -35 -59 -35 -3 0 -34 -18 -70
-40 -36 -22 -68 -40 -71 -40 -3 0 -30 -16 -60 -35 -68 -44 -75 -44 -107 2 -31
44 -57 23 213 178 113 65 222 129 242 142 21 12 40 23 44 23 3 0 18 9 33 20
99 70 151 81 220 46z m-11 -394 c56 -27 154 -82 184 -103 14 -11 28 -19 31
-19 2 0 56 -29 118 -65 145 -83 169 -110 169 -187 l0 -58 -60 0 -60 0 0 33 c0
38 -13 52 -85 92 -27 15 -54 31 -60 35 -5 4 -32 20 -60 35 -27 15 -92 52 -142
82 l-93 54 -57 -32 c-32 -17 -62 -35 -68 -39 -5 -5 -68 -42 -140 -82 -71 -41
-140 -81 -152 -89 -23 -14 -23 -15 -23 -264 0 -249 0 -250 23 -264 21 -14 82
-49 310 -180 l108 -62 77 44 c42 25 100 57 127 72 28 15 55 31 60 35 6 4 33
20 60 35 28 15 65 39 83 52 l33 25 -3 91 -3 92 -155 3 c-139 2 -158 1 -175
-16 -104 -95 -225 -53 -225 77 0 114 133 160 219 75 23 -24 26 -24 242 -24
l219 0 0 -171 c0 -221 15 -200 -245 -344 -273 -152 -265 -144 -265 -268 0
-161 2 -162 165 -69 257 146 531 306 558 324 l28 20 -2 354 c-2 386 -4 370 49
365 64 -5 62 7 61 -340 -1 -452 -1 -451 -126 -516 -21 -11 -83 -46 -138 -78
-55 -33 -125 -73 -155 -90 -303 -169 -370 -212 -370 -239 0 -42 -62 -88 -119
-88 -115 0 -169 133 -86 212 l36 33 -3 114 -3 114 -95 55 c-52 30 -153 88
-225 129 -192 110 -173 64 -177 420 -3 289 -2 302 17 328 17 22 116 83 395
243 120 69 139 73 198 44z m-830 -46 c60 -54 60 -126 1 -184 l-29 -29 2 -403
3 -403 105 -62 c58 -34 196 -114 307 -179 234 -136 218 -121 193 -175 -25 -51
-10 -55 -170 36 -74 43 -151 87 -171 98 -194 107 -307 175 -335 201 l-34 31 0
427 0 427 -29 25 c-99 83 -29 236 99 217 19 -3 46 -15 58 -27z"/></g></svg>