<svg version="1.0" xmlns="http://www.w3.org/2000/svg"
 viewBox="0 0 350.000000 350.000000"
 preserveAspectRatio="xMidYMid meet"><g transform="translate(0.000000,350.000000) scale(0.100000,-0.100000)"
fill="#fff"><path d="M377 2923 c-12 -12 -8 -1828 4 -1880 23 -102 52 -180 80 -215 16 -20
29 -39 29 -43 0 -9 60 -66 110 -105 25 -19 47 -37 50 -40 11 -11 98 -49 155
-66 57 -18 116 -19 1180 -19 l1120 0 0 955 -1 955 -23 65 c-70 190 -228 332
-427 384 -64 17 -2261 26 -2277 9z m2092 -384 c80 -26 94 -34 144 -83 28 -28
67 -79 85 -113 l32 -61 0 -676 0 -676 -852 2 -853 3 -67 33 c-76 38 -153 114
-187 186 -21 45 -21 51 -21 721 l0 675 842 0 c602 0 852 -3 877 -11z M1550
2299 c-36 -5 -74 -13 -85 -18 -11 -5 -40 -15 -65 -22 -25 -7 -57 -21 -72 -31
-14 -10 -31 -18 -36 -18 -56 0 -215 -221 -260 -361 -64 -195 2 -572 109 -626
55 -28 62 13 17 106 -102 207 5 586 193 685 13 7 33 17 44 23 96 52 248 51
261 -2 9 -35 -8 -52 -93 -92 -86 -41 -106 -64 -164 -187 -66 -138 16 -373 166
-476 275 -189 563 -165 741 63 113 144 148 219 174 373 14 77 8 146 -25 317
-16 79 -22 40 -21 -131 2 -337 -92 -483 -402 -625 -139 -64 -457 74 -370 161
15 15 74 16 83 2 37 -60 345 43 345 116 0 8 3 14 8 14 43 0 120 322 82 345 -5
3 -10 17 -10 31 0 22 -39 106 -73 158 -90 138 -334 225 -547 195z"/></g></svg>